# xmcd CD database file
#
# Track frame offsets:
#	150
#	19888
#	33199
#	53732
#	83562
#	105129
#	131099
#	153879
#	172338
#	195551
#	213712
#	237445
#	257533
#	280389
#
# Disc length: 4017 seconds
#
# Revision: 0
# Processed by: cddbd v1.5.1PL0 Copyright (c) Steve Scherf et al.
# Submitted via: CDex 1.51
#
DISCID=ba0faf0e
DTITLE=AA. VV. - Bachata Compilation
DYEAR=2002
DGENRE=Merengue
TTITLE0=Te amo
TTITLE1=La Trampa
TTITLE2=Extrano Mi Pueblo
TTITLE3=El Dueno De La Noce
TTITLE4=Abrazame Muy Fuerte
TTITLE5=Si Quieres Volver
TTITLE6=Asi Fue
TTITLE7=Amarte Es Un Problema
TTITLE8=Hoja En Blanco
TTITLE9=Mi Primer Amor
TTITLE10=Bachata Rosa
TTITLE11=Tantina Pena
TTITLE12=Loora alma mia
TTITLE13=Volvere
EXTD=YEAR: 2002
EXTT0=
EXTT1=
EXTT2=
EXTT3=
EXTT4=
EXTT5=
EXTT6=
EXTT7=
EXTT8=
EXTT9=
EXTT10=
EXTT11=
EXTT12=
EXTT13=
PLAYORDER=
